<?xml version="1.0" standalone="no"?>
<!DOCTYPE svg PUBLIC "-//W3C//DTD SVG 20010904//EN"
 "http://www.w3.org/TR/2001/REC-SVG-20010904/DTD/svg10.dtd">
<svg version="1.0" xmlns="http://www.w3.org/2000/svg"
 width="300.000000pt" height="434.000000pt" viewBox="0 0 300.000000 434.000000"
 preserveAspectRatio="xMidYMid meet">
<metadata>
Created by potrace 1.10, written by Peter Selinger 2001-2011
</metadata>
<g transform="translate(0.000000,434.000000) scale(0.100000,-0.100000)"
fill="#000000" stroke="none">
<path d="M1694 4086 c-59 -26 -132 -83 -217 -167 -89 -88 -124 -119 -132 -119
-6 0 -42 -29 -74 -60 -14 -14 -42 -36 -61 -50 -37 -26 -80 -63 -168 -147 -30
-29 -59 -53 -63 -53 -5 0 -9 -9 -9 -20 0 -11 -6 -20 -13 -20 -7 0 -19 -10 -27
-21 -8 -12 -21 -27 -28 -35 -6 -7 -12 -15 -12 -19 0 -7 -19 -30 -42 -53 -10
-9 -18 -22 -18 -29 0 -7 -5 -13 -10 -13 -6 0 -15 -10 -20 -22 -6 -13 -19 -37
-30 -55 -10 -17 -20 -40 -22 -50 -2 -10 -9 -24 -15 -31 -7 -7 -13 -22 -13 -32
0 -10 -7 -31 -15 -46 -8 -16 -15 -41 -15 -56 0 -14 -5 -28 -11 -30 -16 -5 -17
-230 -1 -236 7 -2 12 -15 12 -28 0 -14 7 -27 15 -30 8 -4 15 -15 15 -25 0 -11
7 -22 15 -25 8 -4 15 -12 15 -18 0 -7 11 -19 25 -26 14 -7 25 -16 25 -19 0 -4
-11 -15 -25 -25 -14 -10 -25 -25 -25 -32 0 -8 -7 -14 -15 -14 -8 0 -15 -6 -15
-14 0 -8 -7 -16 -15 -20 -8 -3 -15 -12 -15 -21 0 -8 -3 -15 -7 -15 -5 0 -17
-13 -27 -29 -12 -17 -35 -34 -57 -40 -20 -6 -51 -25 -68 -43 -29 -29 -31 -37
-31 -100 0 -54 3 -68 15 -68 8 0 15 9 15 20 0 11 -4 20 -10 20 -5 0 -10 14
-10 30 0 17 5 30 10 30 6 0 10 9 10 19 0 11 15 31 33 44 48 36 115 51 196 43
40 -4 72 -3 75 2 8 13 -28 22 -91 22 -63 0 -68 14 -23 60 16 17 30 33 30 35 0
11 99 105 123 117 25 12 42 13 115 2 164 -25 187 -34 178 -75 -3 -17 0 -33 8
-41 7 -8 15 -44 18 -82 3 -38 10 -71 15 -75 6 -3 13 -43 16 -89 4 -71 3 -83
-10 -78 -8 3 -17 6 -19 6 -2 0 -4 7 -4 15 0 8 -4 15 -10 15 -5 0 -10 9 -10 20
0 11 -6 20 -14 20 -8 0 -16 4 -18 8 -4 11 -86 65 -121 80 -37 16 -47 15 -47
-3 0 -8 6 -15 12 -15 18 0 120 -52 140 -72 9 -9 24 -28 33 -42 16 -25 16 -26
-9 -37 -34 -16 -120 1 -201 40 -114 54 -162 65 -279 66 -82 0 -110 -3 -114
-13 -3 -10 5 -13 29 -10 18 1 34 -2 36 -8 4 -11 -41 -64 -54 -64 -5 0 -17 -13
-26 -30 -10 -16 -22 -30 -28 -30 -5 0 -9 -5 -9 -10 0 -6 -14 -29 -30 -52 -17
-22 -30 -50 -30 -60 0 -11 -7 -26 -15 -34 -8 -9 -15 -28 -15 -43 0 -15 -4 -31
-9 -37 -5 -5 -11 -39 -13 -76 -2 -38 -6 -68 -10 -68 -4 0 -4 -17 -2 -37 10
-67 38 -135 66 -158 16 -13 28 -28 28 -34 0 -6 7 -11 15 -11 8 0 15 -4 15 -10
0 -5 5 -10 10 -10 6 0 19 -8 29 -18 11 -9 27 -23 35 -30 14 -11 15 -33 10
-166 -8 -181 4 -568 17 -560 5 3 9 155 9 340 0 374 -2 363 68 328 20 -11 39
-22 42 -25 6 -8 152 -59 168 -59 14 0 52 -36 52 -49 0 -5 21 -19 46 -31 46
-21 46 -22 41 -61 -6 -43 -7 -42 41 -22 6 3 12 0 12 -7 0 -10 3 -10 15 0 23
19 18 30 -15 30 -16 0 -30 4 -30 9 0 15 19 23 33 14 6 -4 27 -8 46 -8 l33 0 2
-134 c2 -94 6 -136 14 -139 7 -2 12 -19 12 -39 0 -19 6 -47 14 -61 8 -15 17
-35 20 -44 7 -22 45 -24 72 -4 14 11 16 18 8 26 -8 8 -14 9 -18 1 -14 -21 -36
-12 -36 15 0 25 3 26 34 21 30 -5 33 -3 29 14 -6 20 -11 22 -60 19 -30 -1 -33
1 -33 28 0 17 -6 33 -12 35 -10 4 -10 6 0 6 14 1 17 31 2 31 -16 0 -11 29 9
51 14 15 21 17 26 8 5 -7 1 -16 -9 -21 -20 -11 -21 -28 -2 -28 7 0 16 -9 19
-20 9 -34 25 -22 25 20 0 22 -3 40 -7 40 -5 0 -12 26 -15 58 -4 31 -9 69 -12
83 -4 23 1 31 40 55 25 16 46 35 46 42 0 7 7 15 15 18 8 4 15 12 15 19 0 7 7
15 15 19 9 3 15 0 15 -9 0 -8 5 -15 10 -15 6 0 10 -8 10 -18 0 -21 31 -49 64
-58 31 -7 113 10 171 36 24 11 48 20 54 20 17 0 75 34 96 57 11 12 40 26 65
32 56 12 75 -2 83 -62 3 -23 11 -43 16 -45 6 -2 11 -14 11 -27 0 -19 16 -35
36 -35 7 0 -10 35 -23 48 -7 7 -13 26 -13 42 0 16 -5 30 -11 32 -6 2 -11 19
-12 38 -2 30 2 35 28 44 17 5 49 17 72 27 24 11 46 19 50 19 5 0 39 20 76 45
38 25 75 45 83 45 19 0 30 28 16 42 -13 13 -52 -7 -52 -27 0 -8 -6 -15 -14
-15 -8 0 -16 -3 -18 -7 -8 -18 -89 -53 -124 -54 -22 0 -33 -3 -26 -6 21 -8 13
-26 -9 -20 -13 3 -28 -2 -40 -14 -10 -10 -28 -19 -39 -19 -10 0 -29 -4 -42 -9
-13 -5 -49 -15 -81 -22 -48 -10 -56 -15 -52 -30 5 -14 -4 -23 -37 -37 -121
-54 -241 -82 -274 -64 -21 11 -60 72 -47 72 4 0 0 5 -9 11 -10 5 -18 18 -18
28 0 10 -7 24 -15 31 -8 7 -15 25 -15 41 0 16 -3 29 -8 29 -4 0 -18 27 -31 60
-17 43 -22 71 -19 105 3 25 2 45 -2 45 -12 0 -28 85 -23 115 3 14 1 31 -4 38
-21 26 -25 234 -4 246 9 6 11 20 6 50 -7 41 -6 42 31 57 27 11 60 15 110 12
77 -4 100 -13 71 -29 -23 -13 -22 -35 2 -42 23 -6 112 11 126 24 19 19 82 8
152 -26 95 -46 225 -83 288 -81 62 1 77 20 18 23 -104 4 -348 87 -315 107 28
17 243 5 269 -16 7 -5 22 -8 35 -6 20 4 16 7 -22 25 -81 37 -191 45 -301 23
-37 -7 -75 -10 -85 -6 -18 7 -18 8 0 21 10 8 15 18 11 24 -9 16 -25 14 -25 -3
0 -8 -7 -16 -15 -20 -8 -3 -15 -11 -15 -19 0 -7 -16 -19 -36 -26 -35 -13 -37
-12 -70 20 -18 19 -34 44 -34 57 0 13 -4 20 -10 17 -5 -3 -10 -1 -10 5 0 6 6
10 13 9 26 -3 37 2 37 16 0 8 5 15 11 15 16 0 38 31 39 52 0 9 8 22 18 27 16
10 16 10 0 11 -10 0 -18 4 -18 9 0 15 23 26 28 13 5 -15 32 -3 32 14 0 8 7 14
15 14 8 0 15 5 15 10 0 6 -7 10 -15 10 -8 0 -15 7 -15 16 0 11 6 14 21 9 24
-8 49 15 64 60 6 16 19 31 30 33 18 4 18 3 2 -22 -19 -28 -21 -36 -9 -36 4 0
14 16 21 36 7 19 19 38 27 41 8 3 14 11 14 19 0 8 5 14 10 14 6 0 10 5 10 11
0 13 57 71 80 82 8 4 31 17 50 29 21 13 55 22 87 24 60 3 166 -19 171 -35 2
-6 8 -11 14 -11 23 0 98 -107 98 -139 0 -11 7 -26 15 -35 10 -9 15 -34 15 -70
0 -35 5 -60 15 -70 15 -15 22 -131 8 -124 -149 74 -183 84 -183 53 0 -10 10
-15 33 -15 18 0 48 -11 69 -25 20 -14 41 -25 45 -25 4 0 27 -18 51 -39 40 -38
42 -42 42 -100 0 -33 -4 -62 -9 -65 -5 -4 -12 -23 -16 -44 -8 -46 -45 -95 -63
-83 -16 10 -33 170 -20 187 6 8 -12 25 -54 51 -57 36 -85 48 -214 96 -23 9
-69 19 -103 23 -47 5 -61 10 -61 23 0 12 -2 13 -9 3 -4 -7 -28 -15 -52 -16
-24 -2 -79 -9 -121 -16 -62 -10 -78 -16 -78 -30 0 -15 5 -16 63 -4 110 24 264
15 382 -22 28 -9 87 -34 132 -56 l81 -41 7 -93 c4 -52 11 -94 16 -94 5 0 9
-63 9 -140 0 -77 -4 -140 -9 -140 -5 0 -12 -17 -16 -37 -4 -21 -12 -41 -18
-45 -8 -5 -6 -8 4 -8 15 0 24 12 35 45 11 30 24 128 18 136 -3 5 -1 16 6 24
12 14 10 66 -2 76 -9 6 13 59 25 59 12 0 46 38 39 45 -4 3 -2 9 4 13 30 21 58
202 33 217 -5 4 -8 12 -6 18 2 7 -2 20 -11 29 -9 11 -14 37 -14 73 0 31 -6 68
-14 83 -8 15 -14 54 -13 87 0 58 1 61 39 90 21 17 39 34 40 38 0 4 12 20 28
35 15 15 28 38 29 51 1 13 8 28 15 32 18 11 19 257 1 264 -8 3 -13 24 -13 55
0 27 -4 50 -10 50 -5 0 -10 11 -10 25 0 16 -6 25 -15 25 -18 0 -19 -4 -2 -31
10 -17 10 -23 0 -26 -15 -6 -17 -33 -3 -33 6 0 10 -4 10 -10 0 -5 -7 -7 -15
-4 -12 5 -15 -4 -15 -47 -1 -32 -7 -62 -15 -73 -8 -11 -15 -40 -15 -65 1 -45
1 -45 15 -21 8 14 14 36 15 50 0 14 7 38 15 54 8 15 15 34 15 42 0 8 6 11 16
7 13 -5 14 -25 11 -132 -3 -124 -13 -164 -44 -184 -7 -4 -13 -12 -13 -18 0
-13 -80 -89 -94 -89 -6 0 -20 19 -31 43 -11 23 -25 46 -33 50 -7 5 -10 12 -7
17 6 10 -21 40 -59 65 -28 19 -35 55 -11 55 8 0 15 5 15 10 0 6 5 10 10 10 16
0 50 39 40 45 -5 3 -32 -12 -61 -34 -47 -35 -57 -39 -115 -39 -35 0 -64 3 -64
7 0 3 14 15 30 25 49 28 105 89 108 116 2 14 4 37 5 53 1 15 6 27 11 27 4 0 5
12 2 28 -4 15 -9 41 -11 57 -13 82 -65 193 -65 138 0 -12 4 -23 9 -25 6 -1 13
-19 16 -38 3 -19 10 -39 16 -45 12 -12 12 -185 -1 -185 -5 0 -10 -7 -10 -15 0
-9 -7 -18 -15 -21 -8 -4 -15 -12 -15 -19 0 -14 -29 -34 -130 -86 -65 -34 -76
-41 -109 -69 -10 -8 -26 -20 -36 -26 -10 -6 -23 -19 -29 -29 -14 -25 -56 -65
-68 -65 -14 0 -121 -53 -136 -67 -6 -6 -21 -15 -32 -18 -11 -3 -20 -12 -20
-19 0 -7 -11 -19 -25 -26 -14 -7 -25 -17 -25 -21 0 -4 -13 -10 -30 -14 -28 -6
-43 -25 -20 -25 16 0 91 40 112 60 25 23 58 33 51 15 -2 -8 -11 -16 -19 -19
-8 -3 -14 -12 -14 -21 0 -8 -7 -15 -15 -15 -8 0 -15 -7 -15 -15 0 -8 -4 -15
-10 -15 -5 0 -10 -8 -10 -17 -1 -10 -14 -29 -30 -43 -17 -13 -30 -30 -30 -36
0 -7 -13 -27 -30 -45 -16 -18 -27 -36 -25 -40 7 -11 -56 -37 -100 -41 -37 -3
-40 -1 -37 21 3 20 0 23 -16 19 -15 -4 -19 -2 -15 8 3 8 13 14 22 14 13 0 13
2 2 9 -10 6 -15 36 -18 93 -3 45 -9 86 -15 89 -6 4 -5 9 3 12 11 4 12 7 1 15
-7 5 -14 22 -15 37 -3 36 23 45 51 17 11 -11 28 -24 38 -30 12 -7 17 -21 16
-45 -1 -28 2 -35 13 -30 8 3 15 13 15 23 0 10 7 25 15 34 8 8 15 22 15 30 0 9
6 15 12 14 7 -2 13 4 13 12 0 9 -7 14 -19 12 -12 -2 -37 16 -71 52 -29 31 -57
56 -63 56 -6 0 -12 3 -14 8 -5 12 -104 56 -218 96 -105 38 -207 110 -197 139
2 7 -2 17 -10 22 -17 13 -20 144 -4 174 7 11 9 21 6 21 -8 0 34 78 54 103 8 9
11 17 7 17 -4 0 -2 9 4 20 6 11 7 20 2 20 -15 0 -32 -24 -32 -46 0 -12 -7 -24
-15 -28 -8 -3 -15 -12 -15 -21 0 -9 -6 -26 -14 -38 -22 -35 -42 -197 -24 -197
4 0 8 -11 8 -24 0 -14 7 -31 15 -40 8 -8 15 -19 15 -24 0 -5 12 -18 28 -28 15
-9 32 -23 37 -29 19 -23 164 -85 198 -85 9 0 17 -4 17 -8 0 -4 25 -16 55 -27
30 -10 55 -22 55 -27 0 -4 5 -8 11 -8 6 0 27 -16 47 -35 20 -19 40 -35 45 -35
4 0 7 -7 7 -15 0 -8 7 -15 15 -15 8 0 15 -9 15 -20 0 -20 -25 -29 -32 -11 -4
11 -99 70 -158 98 -48 23 -198 53 -266 53 -22 0 -49 -7 -60 -15 -10 -8 -22
-15 -26 -15 -13 0 -87 80 -93 102 -4 13 -13 38 -22 56 -8 18 -12 40 -9 47 3 8
2 17 -3 19 -12 8 -2 116 15 160 8 21 13 41 10 43 -13 13 67 193 86 193 4 0 8
8 8 18 0 9 18 37 40 62 22 25 40 49 40 53 0 4 13 21 29 36 16 16 27 32 24 35
-3 3 2 8 11 12 9 3 16 12 16 20 0 8 7 14 15 14 8 0 15 5 15 11 0 10 85 99 95
99 2 0 24 19 48 43 51 49 85 77 93 77 3 0 18 12 34 28 38 36 69 62 76 62 4 0
17 11 30 25 13 14 27 25 32 25 5 0 15 11 22 25 7 14 17 25 21 25 5 0 34 26 66
58 69 67 99 92 113 92 6 0 10 4 10 8 0 4 23 16 51 26 57 21 162 18 214 -6 44
-20 112 -92 120 -127 4 -17 11 -31 16 -31 5 0 9 -56 9 -127 0 -69 3 -124 6
-121 3 4 5 48 5 98 0 69 4 97 15 108 14 13 19 11 50 -24 18 -21 34 -45 34 -52
0 -8 6 -28 14 -45 8 -18 17 -59 20 -91 2 -33 9 -62 15 -65 5 -3 11 -61 12
-129 2 -67 7 -122 11 -122 4 0 8 6 8 13 1 6 2 54 4 106 2 58 0 102 -7 112 -6
10 -8 21 -4 25 10 10 34 -14 41 -41 4 -14 11 -25 16 -25 6 0 10 -7 10 -15 0
-9 7 -18 15 -21 8 -4 15 -14 15 -24 0 -10 7 -23 15 -30 8 -7 15 -19 15 -26 0
-8 5 -14 10 -14 6 0 10 -9 10 -20 0 -11 7 -23 15 -26 8 -4 15 -14 15 -23 0 -9
6 -27 13 -41 8 -15 17 -55 20 -90 4 -35 12 -69 17 -74 16 -16 10 112 -6 143
-8 14 -14 34 -14 44 0 10 -7 29 -16 42 -9 13 -13 29 -9 35 3 5 1 10 -5 10 -6
0 -15 10 -20 23 -12 27 -31 56 -47 75 -7 7 -13 22 -13 33 0 10 -7 19 -15 19
-8 0 -15 5 -15 11 0 6 -6 17 -12 24 -30 33 -38 45 -38 53 0 5 -7 15 -15 22 -8
7 -15 25 -15 41 0 16 -4 29 -9 29 -5 0 -12 17 -16 37 -4 21 -11 40 -15 43 -5
3 -10 12 -12 20 -3 17 -86 100 -99 100 -5 0 -11 11 -15 25 -3 14 -10 25 -15
25 -5 0 -9 5 -9 10 0 20 -94 100 -129 110 -64 19 -173 22 -207 6z m-841 -1909
c37 -11 67 -24 67 -27 0 -3 -39 -13 -87 -21 -55 -9 -88 -19 -91 -28 -4 -11 2
-12 24 -7 77 18 189 26 217 16 17 -5 45 -10 63 -10 27 0 34 -4 34 -19 0 -10
-7 -21 -15 -25 -8 -3 -15 -12 -15 -21 0 -8 -7 -15 -15 -15 -8 0 -15 -6 -15
-14 0 -8 -3 -16 -7 -18 -8 -3 -43 -62 -43 -72 0 -17 22 -3 30 19 5 14 14 25
20 25 5 0 10 7 10 15 0 9 7 18 15 21 8 4 15 12 15 18 0 20 53 71 87 85 20 8
47 11 68 7 35 -7 35 -7 35 -60 0 -35 -5 -58 -15 -66 -8 -7 -15 -28 -15 -47 0
-19 -7 -41 -15 -50 -13 -12 -15 -46 -13 -212 2 -134 7 -203 15 -212 6 -8 13
-34 15 -58 2 -25 9 -46 16 -49 6 -2 12 3 12 12 0 9 7 16 15 16 11 0 15 9 13
28 -2 32 9 55 23 47 5 -4 9 -15 9 -26 0 -10 5 -19 10 -19 6 0 10 -13 10 -29 0
-16 7 -36 15 -45 8 -8 15 -28 15 -44 0 -17 -6 -32 -15 -36 -8 -3 -15 -11 -15
-18 0 -7 -13 -28 -29 -45 -25 -29 -36 -33 -87 -36 -95 -7 -169 8 -224 43 -30
19 -47 37 -44 45 4 9 -6 15 -28 20 -18 3 -42 10 -53 14 -181 75 -232 98 -254
118 -14 14 -38 32 -53 41 -16 9 -28 20 -28 24 0 4 -5 8 -11 8 -11 0 -74 59
-74 70 0 4 -8 14 -18 24 -9 10 -15 21 -12 26 3 5 1 11 -5 15 -13 8 -13 155 0
155 6 0 10 27 10 60 0 42 4 62 14 66 7 3 14 17 14 32 0 14 5 28 11 30 6 2 11
10 11 18 0 22 56 97 132 176 l68 69 57 -6 c32 -4 88 -16 126 -28z m396 -468
c1 -31 8 -70 16 -85 19 -37 19 -60 0 -68 -9 -3 -15 0 -15 8 0 8 -7 16 -15 20
-12 4 -15 26 -15 108 0 57 3 114 7 128 7 23 8 21 15 -15 4 -22 7 -65 7 -96z
m-21 -602 c2 -11 -3 -17 -17 -17 -23 0 -35 15 -26 31 10 15 39 6 43 -14z m0
-54 c-5 -26 -38 -29 -38 -4 0 15 6 21 21 21 14 0 19 -5 17 -17z m22 -50 c0 -5
-11 -16 -25 -26 -25 -18 -42 -9 -31 18 5 15 56 21 56 8z"/>
<path d="M996 1788 c-9 -140 -7 -318 4 -318 6 0 10 55 10 144 0 86 4 147 10
151 17 11 9 115 -10 115 -4 0 -10 -41 -14 -92z"/>
<path d="M990 1448 c0 -7 5 -20 10 -28 7 -12 12 -12 22 -2 9 9 9 12 0 12 -7 0
-12 7 -12 15 0 8 -4 15 -10 15 -5 0 -10 -6 -10 -12z"/>
<path d="M1671 3948 c-52 -20 -67 -29 -119 -75 -19 -17 -21 -23 -9 -23 9 0 24
8 34 18 34 34 51 43 109 58 48 12 67 13 102 3 23 -6 42 -17 42 -24 0 -15 -43
-35 -75 -35 -30 0 -65 -28 -65 -52 0 -20 -46 -26 -52 -7 -5 14 -99 -7 -113
-25 -5 -7 -20 -18 -32 -25 -13 -6 -23 -21 -23 -31 0 -11 -4 -20 -10 -20 -5 0
-10 -4 -10 -10 0 -20 19 -9 37 20 9 17 23 30 30 30 7 0 13 4 13 9 0 22 105 41
112 20 2 -7 12 -7 30 0 48 18 152 21 186 4 l32 -15 0 -112 c1 -61 2 -136 4
-166 3 -60 -1 -80 -16 -80 -16 0 -40 -29 -36 -45 3 -13 6 -13 32 0 16 9 30 14
31 13 2 -2 5 -36 7 -77 3 -45 10 -76 18 -81 10 -6 6 -15 -15 -34 -34 -31 -27
-45 9 -21 25 17 26 16 26 -2 0 -11 7 -28 16 -39 15 -19 15 -19 10 1 -2 11 -12
40 -21 65 -9 25 -18 68 -20 95 -2 28 -7 68 -12 90 -5 22 -9 121 -8 220 0 141
-3 182 -14 191 -7 6 -13 23 -13 39 0 16 -7 35 -14 43 -8 7 -14 22 -14 33 0 10
-4 19 -8 19 -5 0 -19 10 -32 22 -32 30 -82 32 -149 6z"/>
<path d="M1606 3725 c-15 -12 -46 -28 -67 -35 -22 -7 -39 -18 -39 -23 0 -5
-12 -7 -26 -4 -18 3 -27 0 -32 -12 -3 -9 -16 -24 -29 -34 -24 -19 -32 -62 -10
-54 6 2 11 9 10 15 -3 13 108 84 160 103 20 7 37 16 37 20 0 4 7 15 16 24 26
25 12 26 -20 0z"/>
<path d="M1738 3719 c-10 -5 -18 -19 -18 -29 0 -18 2 -18 35 -4 33 13 36 13
56 -7 18 -18 22 -34 23 -91 0 -43 4 -67 11 -65 12 4 16 127 4 127 -5 0 -9 7
-9 15 0 9 -6 18 -14 21 -8 3 -16 14 -19 25 -6 21 -40 25 -69 8z"/>
<path d="M2030 3545 c0 -17 5 -25 13 -22 6 2 12 12 12 22 0 10 -6 20 -12 23
-8 2 -13 -6 -13 -23z"/>
<path d="M1367 3554 c-4 -4 -40 -8 -80 -9 -78 -1 -106 -13 -149 -60 -32 -36
-41 -78 -32 -153 5 -44 13 -63 35 -85 34 -32 34 -34 13 -135 -11 -51 -14 -105
-11 -159 4 -75 3 -83 -13 -83 -10 0 -20 7 -24 15 -7 20 -30 19 -47 -1 -10 -13
-10 -17 1 -24 7 -4 20 -6 28 -2 10 3 13 0 10 -9 -6 -18 -59 -44 -67 -32 -3 4
-18 14 -33 20 -17 8 -28 20 -28 32 0 11 -4 23 -10 26 -12 8 -13 75 -1 107 4
13 5 32 1 43 -7 16 -9 12 -15 -22 -4 -24 -12 -43 -18 -43 -6 0 -6 -4 1 -12 5
-7 12 -40 14 -72 3 -33 10 -62 16 -64 7 -2 12 -10 12 -18 0 -8 5 -14 11 -14
12 0 121 -52 129 -61 3 -3 17 -9 33 -13 15 -3 27 -11 27 -16 0 -6 9 -10 21
-10 11 0 35 -8 52 -17 35 -21 117 -99 117 -114 0 -5 4 -9 9 -9 6 0 16 -12 23
-27 13 -28 48 -44 48 -22 0 12 64 79 75 79 3 0 16 10 28 23 12 13 38 34 57 47
19 13 37 27 40 30 7 8 196 100 206 100 26 0 154 77 154 93 0 3 -121 1 -130 -2
-3 -1 5 -10 18 -21 l23 -19 -25 -7 c-14 -3 -26 -10 -26 -15 0 -5 -10 -9 -22
-9 -35 0 -258 -120 -258 -138 0 -4 -18 -18 -40 -32 -22 -14 -40 -30 -40 -37 0
-7 -7 -13 -15 -13 -8 0 -15 -3 -15 -7 -1 -5 -10 -19 -21 -32 -19 -23 -20 -23
-39 -6 -11 10 -20 24 -20 30 0 7 -7 15 -15 19 -8 3 -15 12 -15 21 0 8 -4 15
-10 15 -5 0 -24 16 -43 35 -19 19 -39 35 -44 35 -6 0 -13 8 -17 18 -8 24 -29
56 -43 65 -7 4 -13 19 -13 32 0 13 -5 25 -12 27 -17 6 -18 272 0 289 6 7 12
21 12 30 0 27 14 30 60 14 58 -20 144 -19 178 2 40 26 72 62 72 82 0 9 7 26
15 37 19 25 19 63 -1 86 -16 16 -16 18 0 24 9 3 16 12 16 19 0 7 6 15 13 18 6
2 9 8 4 12 -4 5 -13 0 -20 -9 -11 -15 -17 -17 -35 -7 -12 6 -22 18 -22 25 0 8
-8 17 -17 20 -41 16 -61 31 -69 54 -5 13 -12 21 -17 16z m10 -66 c35 -18 63
-39 63 -45 0 -7 6 -13 14 -13 8 0 17 -15 20 -35 4 -19 11 -35 16 -35 6 0 10
-16 10 -35 0 -24 -5 -35 -15 -35 -10 0 -15 -10 -15 -34 0 -30 -5 -37 -43 -55
-47 -23 -89 -26 -154 -11 -63 15 -133 76 -133 115 0 14 -4 25 -10 25 -5 0 -10
23 -10 50 0 30 4 50 11 50 6 0 9 6 6 14 -13 32 66 72 148 75 16 1 57 -14 92
-31z m-224 -690 c8 -30 2 -34 -29 -19 -21 9 -24 14 -14 26 18 22 37 18 43 -7z"/>
<path d="M1780 3501 c0 -65 6 -72 33 -41 21 25 22 36 2 44 -8 3 -15 14 -15 25
0 11 -4 23 -10 26 -6 4 -10 -17 -10 -54z"/>
<path d="M1603 3410 c3 -11 1 -20 -4 -20 -14 0 -11 -20 6 -36 16 -16 49 -11
72 11 16 16 4 28 -13 14 -20 -17 -44 -3 -44 26 0 14 -5 25 -11 25 -6 0 -9 -9
-6 -20z"/>
<path d="M1796 3317 c-16 -26 -45 -93 -46 -104 0 -2 7 -3 15 -3 8 0 15 9 15
19 0 22 31 81 43 81 4 0 7 9 7 20 0 29 -12 25 -34 -13z"/>
<path d="M928 3295 c-24 -32 -23 -44 3 -38 11 3 18 11 15 19 -3 7 -1 16 4 19
12 7 13 25 3 25 -5 0 -16 -11 -25 -25z"/>
<path d="M1628 3313 c-10 -2 -18 -10 -18 -16 0 -8 18 -11 55 -9 57 4 72 15 33
26 -25 6 -44 6 -70 -1z"/>
<path d="M1610 3188 c4 -42 0 -49 -35 -64 -44 -18 -83 -18 -129 1 -32 14 -36
14 -36 0 0 -20 40 -35 97 -35 33 0 58 8 89 28 24 15 44 30 44 35 0 4 7 7 15 7
20 0 19 20 -2 36 -27 20 -45 17 -43 -8z"/>
<path d="M1770 3111 c0 -29 14 -41 50 -41 38 0 82 32 61 44 -5 4 -12 2 -16 -4
-8 -13 -51 -13 -76 0 -11 7 -19 7 -19 1z"/>
<path d="M1970 3087 c0 -9 -12 -18 -30 -22 -43 -9 -39 -35 5 -33 19 1 38 -1
41 -4 3 -3 5 -33 5 -67 1 -63 11 -74 33 -38 8 13 8 20 0 25 -7 4 -15 35 -19
69 -4 34 -13 67 -21 74 -11 9 -14 8 -14 -4z"/>
<path d="M1612 3003 c-7 -12 -23 -16 -61 -15 -40 1 -51 -2 -51 -15 0 -13 9
-15 52 -11 29 3 54 11 56 17 2 6 10 11 18 11 8 0 14 7 14 15 0 20 -17 19 -28
-2z"/>
<path d="M1754 2667 c-3 -8 -23 -17 -45 -21 -21 -3 -48 -15 -59 -26 -11 -11
-24 -20 -30 -20 -5 0 -10 -6 -10 -13 0 -7 -8 -17 -19 -22 -62 -33 -150 -102
-151 -117 0 -4 -13 -21 -30 -38 -35 -36 -36 -40 -10 -40 11 0 20 5 20 11 0 6
6 16 13 23 6 8 19 23 27 35 8 11 20 21 27 21 7 0 13 6 13 13 0 6 18 21 40 31
22 11 40 23 40 28 0 4 7 8 15 8 8 0 15 6 15 14 0 8 30 29 68 47 37 19 69 37
70 42 2 4 10 7 18 7 16 0 19 16 4 25 -6 3 -13 0 -16 -8z"/>
<path d="M1630 2021 c0 -5 12 -17 27 -26 27 -18 93 -85 93 -96 0 -3 11 -12 25
-19 14 -7 25 -19 25 -26 0 -6 10 -18 23 -27 12 -8 38 -30 58 -48 19 -19 58
-46 85 -59 27 -14 51 -28 54 -31 10 -11 48 -16 61 -8 12 7 12 9 0 9 -24 0
-104 42 -141 75 -70 61 -160 153 -160 164 0 6 -7 11 -15 11 -8 0 -15 7 -15 15
0 8 -7 15 -15 15 -8 0 -15 5 -15 10 0 6 -5 10 -10 10 -6 0 -20 9 -32 20 -23
21 -48 27 -48 11z"/>
<path d="M1470 1924 c0 -51 4 -75 15 -84 9 -8 15 -29 15 -56 0 -23 4 -45 9
-48 5 -4 12 -24 16 -46 4 -22 11 -42 16 -46 5 -3 9 -16 9 -29 0 -13 7 -30 15
-39 8 -8 15 -23 15 -34 0 -11 7 -25 15 -32 8 -7 15 -21 15 -31 0 -20 15 -25
25 -9 3 6 -1 17 -9 26 -9 8 -16 24 -16 34 0 10 -5 20 -10 22 -6 2 -13 21 -17
43 -3 22 -13 46 -21 54 -8 8 -12 26 -10 42 3 17 -1 30 -9 33 -8 3 -13 21 -13
45 0 22 -4 41 -10 43 -5 2 -13 32 -17 68 -3 35 -12 75 -20 90 -12 23 -13 19
-13 -46z"/>
<path d="M2259 1443 c0 -4 -2 -30 -3 -58 -4 -82 -18 -199 -24 -210 -4 -5 -8
-19 -9 -29 -2 -11 -8 -25 -14 -33 -8 -9 -8 -13 0 -13 6 0 11 -11 11 -25 0 -14
6 -28 14 -31 8 -3 13 -11 10 -19 -3 -7 2 -19 10 -28 9 -9 16 -20 16 -25 0 -5
7 -15 15 -22 8 -7 15 -21 15 -31 0 -9 7 -24 15 -33 8 -8 15 -24 15 -35 0 -11
5 -23 10 -26 6 -3 10 -16 10 -28 0 -13 6 -31 14 -42 11 -17 32 -108 28 -127
-1 -3 15 -14 36 -24 20 -9 49 -30 64 -45 28 -27 37 -59 18 -59 -5 0 -10 -11
-10 -24 0 -25 -25 -43 -35 -26 -10 17 -25 11 -25 -10 0 -14 -7 -20 -21 -20
-12 0 -27 -8 -34 -17 -11 -15 -15 -15 -30 -3 -13 11 -18 11 -24 1 -5 -7 -17
-11 -27 -10 -11 2 -25 0 -32 -5 -7 -4 -19 -2 -28 5 -13 10 -17 10 -24 -2 -7
-11 -47 -15 -192 -17 -132 -3 -208 -9 -272 -23 -107 -23 -238 -35 -263 -24
-18 8 -64 14 -116 14 -15 1 -49 7 -75 15 -26 8 -66 19 -89 25 -26 7 -43 18
-43 26 0 8 -7 15 -15 15 -8 0 -15 8 -15 19 0 11 -9 21 -22 25 -32 8 -38 7 -38
-4 0 -5 7 -10 15 -10 8 0 15 -9 15 -19 0 -10 7 -21 15 -25 8 -3 15 -12 15 -21
0 -12 -17 -15 -100 -15 -95 0 -100 1 -125 27 -19 21 -25 24 -25 11 0 -9 6 -19
13 -21 6 -3 -5 -6 -25 -6 -27 -1 -36 3 -32 12 5 15 -23 44 -33 33 -3 -3 -1 -6
5 -6 7 0 12 -7 12 -15 0 -17 -25 -21 -35 -5 -3 5 -18 7 -34 4 -20 -4 -30 -1
-34 10 -4 9 -13 13 -21 10 -19 -7 -116 37 -116 53 0 7 -12 13 -26 13 -45 0
-64 17 -64 58 0 30 6 43 30 62 32 27 37 40 17 40 -7 0 -27 -15 -45 -34 -26
-28 -32 -42 -32 -80 0 -33 4 -46 14 -46 8 0 16 -3 18 -7 1 -5 18 -16 36 -25
17 -10 47 -26 64 -35 18 -10 35 -21 38 -24 3 -3 32 -11 65 -18 33 -8 76 -18
95 -24 19 -5 123 -11 231 -12 144 -2 210 -7 245 -18 73 -23 108 -27 239 -28
79 -1 161 6 241 20 85 14 174 21 296 22 96 2 211 8 255 14 116 17 222 73 223
118 0 9 5 17 10 17 14 0 13 26 -2 52 -18 29 -46 58 -58 58 -5 0 -10 4 -10 8 0
4 -13 12 -29 18 -19 8 -30 20 -34 40 -3 16 -1 32 4 35 6 3 3 11 -6 19 -8 7
-15 24 -15 39 0 14 -7 35 -15 45 -8 11 -15 28 -15 39 0 10 -7 25 -15 33 -8 9
-15 26 -15 40 0 13 -4 24 -8 24 -8 0 -42 69 -42 85 0 4 -7 13 -16 19 -28 21
-22 165 9 204 6 8 6 12 -2 12 -7 0 -10 8 -7 18 12 39 16 161 6 167 -5 3 -10 3
-11 -2z"/>
<path d="M1640 1410 c0 -5 4 -10 10 -10 5 0 12 -11 16 -25 6 -25 15 -31 27
-19 4 4 -3 20 -14 35 -20 29 -39 38 -39 19z"/>
<path d="M1007 1053 c-4 -3 -7 -54 -7 -113 l0 -107 -57 -7 c-94 -11 -222 -62
-223 -88 0 -12 10 -10 65 18 29 14 81 29 115 34 88 12 115 -1 104 -53 -4 -19
-1 -29 10 -33 9 -3 13 -10 10 -15 -8 -14 19 -10 39 5 9 7 17 21 17 30 0 27 27
30 65 6 20 -12 39 -19 43 -15 8 8 -56 65 -74 65 -6 0 -17 7 -25 16 -9 11 -22
14 -42 10 -25 -5 -28 -3 -25 17 4 28 37 35 55 11 10 -13 13 -14 13 -3 0 28
-16 40 -43 33 -20 -4 -27 -2 -27 9 0 18 27 30 35 17 8 -13 35 -13 35 -1 0 5
-13 12 -29 16 -52 11 -48 67 4 57 15 -2 25 0 25 7 0 6 -15 11 -34 11 -34 0
-34 0 -29 40 5 37 -3 50 -20 33z m52 -302 c16 -10 6 -31 -14 -31 -17 0 -28 17
-20 30 8 12 16 12 34 1z"/>
<path d="M1059 1040 l-24 -19 28 -1 c20 0 27 5 27 20 0 25 -2 25 -31 0z"/>
<path d="M1480 813 c-49 -8 -120 -37 -120 -50 0 -10 5 -11 18 -5 31 17 146 24
198 12 64 -14 131 -48 167 -82 32 -31 52 -37 43 -12 -3 9 -6 18 -6 20 0 2 -7
4 -15 4 -8 0 -15 7 -15 15 0 8 -5 15 -10 15 -6 0 -20 9 -32 20 -36 33 -173 71
-228 63z"/>
<path d="M2380 560 c-119 -39 -211 -45 -367 -24 -54 8 -58 -11 -5 -25 51 -14
250 -22 270 -12 24 12 126 41 144 41 9 0 18 7 22 15 6 17 -21 19 -64 5z"/>
</g>
</svg>
